<svg width="182" height="22" viewBox="0 0 182 22" fill="none" xmlns="http://www.w3.org/2000/svg">
<path opacity="0.4" fill-rule="evenodd" clip-rule="evenodd" d="M15.2673 0V7.49956H6.35579V0.00148418H0V22H6.35579V14.2303H15.2673V21.997H21.6231V0H15.2673ZM64.4478 0V0.00148418H61.2677V22H84.6923V15.7516H67.6964V6.2484H84.688V0H64.4478ZM175.633 0V9.45868L166.763 0L166.744 0.0148418V0H160.377V22H166.744V12.2296L175.633 22H182V0H175.633ZM114.038 0V7.48769H104V0.00445254H97.3077V22H104V14.2155H114.032V22H120.727V14.0018H114.483L120.732 7.48769V0H114.038ZM31.2801 0.00148418V0H51.1381V0.00148418H52.2584V21.9985H45.9508V17.2358H36.9415V22H30.6338V0.00296836H31.2801V0.00148418ZM45.9508 10.7366H36.9415V6.24691H45.9508V10.7366ZM131.507 0V0.00148418H129.742V21.9955H131.467V22H151.327V15.762H136.052V14.1205H151.33V7.881H136.052V6.24098H151.366V0H131.507Z" fill="white"/>
</svg>
