<svg width="11" height="16" viewBox="0 0 11 16" fill="none" xmlns="http://www.w3.org/2000/svg">
<path d="M1.06732 10.4694C0.822873 10.0471 0.63954 9.61381 0.517318 9.16937C0.395096 8.72492 0.333984 8.26937 0.333984 7.8027C0.333984 6.31381 0.850651 5.04715 1.88398 4.0027C2.91732 2.95826 4.17843 2.43604 5.66732 2.43604H5.78398L4.71732 1.36937L5.65065 0.436035L8.31732 3.1027L5.65065 5.76937L4.71732 4.83604L5.78398 3.76937H5.66732C4.55621 3.76937 3.61176 4.16092 2.83398 4.94404C2.05621 5.72759 1.66732 6.68048 1.66732 7.8027C1.66732 8.09159 1.70065 8.37492 1.76732 8.6527C1.83398 8.93048 1.93398 9.2027 2.06732 9.46937L1.06732 10.4694ZM5.68398 15.1027L3.01732 12.436L5.68398 9.76937L6.61732 10.7027L5.55065 11.7694H5.66732C6.77843 11.7694 7.72287 11.3778 8.50065 10.5947C9.27843 9.81115 9.66732 8.85826 9.66732 7.73604C9.66732 7.44715 9.63398 7.16381 9.56732 6.88604C9.50065 6.60826 9.40065 6.33604 9.26732 6.06937L10.2673 5.06937C10.5118 5.49159 10.6951 5.92492 10.8173 6.36937C10.9395 6.81381 11.0007 7.26937 11.0007 7.73604C11.0007 9.22492 10.484 10.4916 9.45065 11.536C8.41732 12.5805 7.15621 13.1027 5.66732 13.1027H5.55065L6.61732 14.1694L5.68398 15.1027Z" fill="#505B64"/>
</svg>
