<svg width="48" height="49" viewBox="0 0 48 49" fill="none" xmlns="http://www.w3.org/2000/svg">
<path d="M26.4662 0.269775C32.2005 0.831179 37.0831 3.12652 41.114 7.15579C45.1433 11.1867 47.4386 16.0693 48 21.8036H30.797C30.4361 20.761 29.8851 19.8491 29.1441 19.068C28.4014 18.2852 27.5088 17.7134 26.4662 17.3525V0.269775ZM31.2782 6.40511V14.5856C31.7193 14.9465 32.1403 15.3274 32.5414 15.7284C32.9424 16.1294 33.3233 16.5505 33.6842 16.9916H41.8647C40.9023 14.5856 39.4987 12.4603 37.6541 10.6156C35.8095 8.77103 33.6842 7.36752 31.2782 6.40511ZM21.6541 0.269775V17.3525C20.2105 17.8738 19.0476 18.7656 18.1654 20.028C17.2832 21.2919 16.8421 22.6858 16.8421 24.2096C16.8421 25.7334 17.2832 27.1065 18.1654 28.3287C19.0476 29.5526 20.2105 30.4252 21.6541 30.9465V48.1495C15.4787 47.548 10.3258 44.9615 6.19549 40.3901C2.06516 35.8186 0 30.4252 0 24.2096C0 17.9941 2.06516 12.6006 6.19549 8.02917C10.3258 3.45775 15.4787 0.871279 21.6541 0.269775ZM16.8421 6.40511C13.193 7.80862 10.2761 10.1344 8.09143 13.3826C5.90516 16.6307 4.81203 20.2397 4.81203 24.2096C4.81203 28.1795 5.90516 31.7886 8.09143 35.0367C10.2761 38.2848 13.193 40.6507 16.8421 42.1344V33.8337C15.3183 32.6708 14.1353 31.2576 13.2932 29.5943C12.4511 27.9293 12.0301 26.1344 12.0301 24.2096C12.0301 22.2848 12.4511 20.4899 13.2932 18.825C14.1353 17.1616 15.3183 15.7485 16.8421 14.5856V6.40511ZM30.797 26.6156H48C47.4386 32.35 45.1433 37.2318 41.114 41.2611C37.0831 45.2919 32.2005 47.5881 26.4662 48.1495V30.9465C27.5088 30.5856 28.4014 30.0338 29.1441 29.2911C29.8851 28.5501 30.4361 27.6582 30.797 26.6156ZM33.6842 31.4277C33.3634 31.8688 32.9921 32.2898 32.5702 32.6908C32.15 33.0918 31.7193 33.4728 31.2782 33.8337V42.0141C33.6842 41.0517 35.8095 39.6482 37.6541 37.8036C39.4987 35.959 40.9023 33.8337 41.8647 31.4277H33.6842Z" fill="#38B6FF"/>
</svg>
