<svg width="14" height="13" viewBox="0 0 14 13" fill="none" xmlns="http://www.w3.org/2000/svg">
<path d="M7.33268 12.7695L6.36602 11.9028C5.24379 10.8917 4.31602 10.0195 3.58268 9.28613C2.84935 8.5528 2.26602 7.89436 1.83268 7.3108C1.39935 6.72769 1.09668 6.19169 0.924682 5.7028C0.752238 5.21391 0.666016 4.71391 0.666016 4.2028C0.666016 3.15835 1.01602 2.28613 1.71602 1.58613C2.41602 0.886133 3.28824 0.536133 4.33268 0.536133C4.91046 0.536133 5.46046 0.658355 5.98268 0.902799C6.5049 1.14724 6.9549 1.49169 7.33268 1.93613C7.71046 1.49169 8.16046 1.14724 8.68268 0.902799C9.2049 0.658355 9.7549 0.536133 10.3327 0.536133C11.3771 0.536133 12.2493 0.886133 12.9493 1.58613C13.6493 2.28613 13.9993 3.15835 13.9993 4.2028C13.9993 4.71391 13.9133 5.21391 13.7413 5.7028C13.5689 6.19169 13.266 6.72769 12.8327 7.3108C12.3993 7.89436 11.816 8.5528 11.0827 9.28613C10.3493 10.0195 9.42157 10.8917 8.29935 11.9028L7.33268 12.7695ZM7.33268 10.9695C8.39935 10.0139 9.27713 9.19436 9.96601 8.5108C10.6549 7.82769 11.1993 7.23347 11.5993 6.72813C11.9993 6.22236 12.2771 5.77213 12.4327 5.37747C12.5882 4.98324 12.666 4.59169 12.666 4.2028C12.666 3.53613 12.4438 2.98058 11.9993 2.53613C11.5549 2.09169 10.9993 1.86947 10.3327 1.86947C9.81046 1.86947 9.32713 2.01658 8.88268 2.3108C8.43824 2.60547 8.13268 2.98058 7.96601 3.43613H6.69935C6.53268 2.98058 6.22713 2.60547 5.78268 2.3108C5.33824 2.01658 4.8549 1.86947 4.33268 1.86947C3.66602 1.86947 3.11046 2.09169 2.66602 2.53613C2.22157 2.98058 1.99935 3.53613 1.99935 4.2028C1.99935 4.59169 2.07713 4.98324 2.23268 5.37747C2.38824 5.77213 2.66602 6.22236 3.06602 6.72813C3.46602 7.23347 4.01046 7.82769 4.69935 8.5108C5.38824 9.19436 6.26602 10.0139 7.33268 10.9695Z" fill="#505B64"/>
</svg>
