<svg width="180" height="55" viewBox="0 0 180 55" fill="none" xmlns="http://www.w3.org/2000/svg">
<path d="M41.4969 9.70996C41.2129 10.5414 40.6318 11.2446 39.8604 11.6905C39.089 12.1365 38.179 12.2951 37.2976 12.1374L32.6703 20.1237C33.1499 20.6483 33.4638 21.2977 33.5741 21.9932C33.6843 22.6887 33.5862 23.4006 33.2915 24.0426C32.9968 24.6847 32.5183 25.2295 31.9138 25.611C31.3092 25.9925 30.6046 26.1945 29.8852 26.1924C29.6531 26.1818 29.4225 26.1493 29.1967 26.0953L25.2579 32.8982C25.6704 33.3649 25.955 33.9264 26.0848 34.5302C26.2147 35.1339 26.1856 35.76 26.0004 36.3498C25.8151 36.9395 25.4797 37.4735 25.0257 37.9017C24.5716 38.3298 24.0138 38.6381 23.4046 38.7975C22.7955 38.9569 22.1548 38.9623 21.5429 38.8131C20.9311 38.6639 20.3679 38.3651 19.9065 37.9446C19.445 37.5241 19.1003 36.9958 18.9047 36.4093C18.7091 35.8227 18.6691 35.1972 18.7884 34.5913L2.13998 25.0939C1.56343 25.6627 0.811262 26.0296 0 26.1377L0 41.2668L24.3461 55.0002L48.686 41.2668V13.7517L41.4969 9.70996Z" fill="white"/>
<path d="M3.21307 22.5328C3.21924 22.6521 3.21924 22.7716 3.21307 22.8909L20.0414 32.5036C20.7115 31.9458 21.562 31.6383 22.4418 31.6358C22.6624 31.6373 22.8824 31.6576 23.0993 31.6965L27.0506 24.8814C26.5916 24.3518 26.297 23.7048 26.2015 23.0168C26.106 22.3287 26.2136 21.6283 26.5115 20.9981C26.8095 20.3679 27.2854 19.8342 27.8831 19.4599C28.4809 19.0856 29.1755 18.8863 29.8852 18.8856C30.0932 18.8878 30.3006 18.9061 30.5055 18.9402L35.1452 10.9539C34.5434 10.2789 34.217 9.4105 34.2285 8.51483C34.2399 7.61917 34.5884 6.75906 35.2073 6.09897L24.3461 0L0 13.7515V18.9281C0.890119 19.0482 1.70576 19.4794 2.29632 20.1419C2.88689 20.8045 3.21251 21.6537 3.21307 22.5328Z" fill="white"/>
<path d="M66.8296 42.705C65.1072 42.0385 63.6052 40.9216 62.4877 39.4765C61.3855 37.9724 60.7912 36.1689 60.7881 34.3181H68.92C68.9586 35.2983 69.3779 36.2272 70.0923 36.9155C70.8365 37.537 71.7946 37.8581 72.772 37.8137C73.7282 37.8652 74.6736 37.5954 75.4516 37.049C75.7753 36.7976 76.0331 36.4744 76.2035 36.106C76.374 35.7377 76.4522 35.3349 76.4316 34.9311C76.442 34.5816 76.3778 34.2338 76.2432 33.9099C76.1087 33.586 75.9067 33.2931 75.6501 33.0498C75.0923 32.5341 74.4427 32.1227 73.7334 31.8361C72.6756 31.4137 71.5946 31.049 70.4955 30.7437C68.7966 30.2608 67.1378 29.6522 65.5333 28.9231C64.2263 28.2918 63.0927 27.3638 62.2271 26.2165C61.2504 24.8492 60.764 23.2039 60.8439 21.5376C60.7859 20.2533 61.0434 18.9742 61.5949 17.8074C62.1464 16.6406 62.9758 15.6202 64.0136 14.8317C66.1225 13.2175 68.8828 12.4043 72.2757 12.4043C75.6687 12.4043 78.4786 13.2114 80.6247 14.8317C81.6719 15.6365 82.5206 16.6614 83.1079 17.8307C83.6953 18.9999 84.0062 20.2834 84.0177 21.5861H75.7617C75.7559 21.1406 75.6534 20.7013 75.4609 20.2974C75.2684 19.8936 74.9904 19.5344 74.6452 19.2436C73.9023 18.6588 72.968 18.357 72.0152 18.394C71.2049 18.3542 70.4086 18.6117 69.7822 19.1162C69.4693 19.4163 69.2319 19.7832 69.0884 20.1882C68.9449 20.5932 68.8993 21.0253 68.9552 21.4504C69.0111 21.8755 69.1669 22.2822 69.4105 22.6385C69.6541 22.9948 69.9788 23.291 70.3591 23.5038C71.7793 24.2603 73.276 24.8705 74.8251 25.3244C76.5194 25.8591 78.1769 26.4997 79.7874 27.2421C81.0754 27.8751 82.1979 28.7885 83.0687 29.9123C84.0364 31.215 84.524 32.8003 84.4519 34.4092C84.4711 36.0912 83.9999 37.7437 83.0935 39.173C82.127 40.6487 80.7556 41.8285 79.1361 42.5775C77.2275 43.4643 75.1322 43.8988 73.0201 43.8459C70.9 43.8674 68.7964 43.4797 66.8296 42.705Z" fill="white"/>
<path d="M104.344 43.4938L96.7643 33.2682V43.4938H89.1162V11.1602H96.7643V29.0323L104.313 19.1101H113.735L103.377 31.3444L113.828 43.4817L104.344 43.4938Z" fill="white"/>
<path d="M140.072 33.092H122.816C122.838 34.3962 123.373 35.6417 124.311 36.5693C125.185 37.3737 126.348 37.8095 127.549 37.7831C128.377 37.8352 129.202 37.635 129.909 37.2102C130.617 36.7853 131.172 36.1565 131.5 35.4102H139.625C139.216 36.9995 138.447 38.4784 137.374 39.7372C136.266 41.0404 134.867 42.0784 133.286 42.7715C131.55 43.5121 129.671 43.8765 127.778 43.8396C125.508 43.8817 123.264 43.3575 121.259 42.3163C119.371 41.3108 117.821 39.7936 116.793 37.9469C115.678 35.8944 115.125 33.5949 115.186 31.2714C115.131 28.9624 115.677 26.6776 116.774 24.6323C117.786 22.7821 119.33 21.2629 121.215 20.2629C123.238 19.2267 125.496 18.7108 127.778 18.764C130.016 18.7208 132.229 19.2323 134.21 20.2508C136.064 21.2223 137.592 22.6975 138.608 24.4988C139.695 26.4641 140.238 28.6733 140.184 30.9073C140.191 31.6371 140.154 32.3666 140.072 33.092ZM132.393 28.9411C132.414 28.3697 132.305 27.8009 132.073 27.276C131.841 26.7511 131.493 26.2834 131.053 25.9068C130.117 25.1379 128.925 24.7338 127.704 24.7719C126.524 24.7365 125.372 25.1251 124.466 25.8643C123.547 26.6556 122.959 27.7515 122.816 28.9411H132.393Z" fill="white"/>
<path d="M180 19.1104L173.258 43.4941H164.816L160.883 27.6732L156.82 43.4941H148.428L141.636 19.1104H149.271L152.801 36.5455L157 19.1104H165.064L169.338 36.4606L172.824 19.1104H180Z" fill="white"/>
</svg>
