<svg width="180" height="56" viewBox="0 0 180 56" fill="none" xmlns="http://www.w3.org/2000/svg">
<path d="M41.4969 9.97949C41.2129 10.8109 40.6318 11.5141 39.8604 11.9601C39.089 12.406 38.179 12.5647 37.2976 12.4069L32.6703 20.3933C33.1499 20.9179 33.4638 21.5672 33.5741 22.2627C33.6843 22.9582 33.5862 23.6701 33.2915 24.3122C32.9968 24.9543 32.5183 25.499 31.9138 25.8805C31.3092 26.2621 30.6046 26.464 29.8852 26.4619C29.6531 26.4514 29.4225 26.4188 29.1967 26.3648L25.2579 33.1677C25.6704 33.6344 25.955 34.1959 26.0848 34.7997C26.2147 35.4034 26.1856 36.0296 26.0004 36.6193C25.8151 37.209 25.4797 37.743 25.0257 38.1712C24.5716 38.5994 24.0138 38.9076 23.4046 39.067C22.7955 39.2265 22.1548 39.2318 21.5429 39.0827C20.9311 38.9335 20.3679 38.6346 19.9065 38.2141C19.445 37.7936 19.1003 37.2653 18.9047 36.6788C18.7091 36.0923 18.6691 35.4667 18.7884 34.8609L2.13998 25.3635C1.56343 25.9322 0.811262 26.2991 0 26.4073L0 41.5364L24.3461 55.2697L48.686 41.5364V14.0212L41.4969 9.97949Z" fill="#37485D"/>
<path d="M3.21307 22.8024C3.21924 22.9216 3.21924 23.0411 3.21307 23.1604L20.0414 32.7731C20.7115 32.2153 21.562 31.9079 22.4418 31.9053C22.6624 31.9069 22.8824 31.9272 23.0993 31.966L27.0506 25.1509C26.5916 24.6213 26.297 23.9743 26.2015 23.2863C26.106 22.5983 26.2136 21.8979 26.5115 21.2677C26.8095 20.6375 27.2854 20.1038 27.8831 19.7295C28.4809 19.3552 29.1755 19.1559 29.8852 19.1551C30.0932 19.1574 30.3006 19.1756 30.5055 19.2097L35.1452 11.2234C34.5434 10.5484 34.217 9.68003 34.2285 8.78437C34.2399 7.8887 34.5884 7.02859 35.2073 6.3685L24.3461 0.269531L0 14.021V19.1976C0.890119 19.3177 1.70576 19.7489 2.29632 20.4115C2.88689 21.074 3.21251 21.9232 3.21307 22.8024Z" fill="#37485D"/>
<path d="M66.8296 42.9745C65.1072 42.308 63.6052 41.1912 62.4877 39.746C61.3855 38.2419 60.7912 36.4384 60.7881 34.5877H68.92C68.9586 35.5679 69.3779 36.4968 70.0923 37.185C70.8365 37.8065 71.7946 38.1276 72.772 38.0832C73.7282 38.1347 74.6736 37.8649 75.4516 37.3185C75.7753 37.0672 76.0331 36.7439 76.2035 36.3756C76.374 36.0072 76.4522 35.6044 76.4316 35.2006C76.442 34.8511 76.3778 34.5034 76.2432 34.1795C76.1087 33.8556 75.9067 33.5626 75.6501 33.3193C75.0923 32.8036 74.4427 32.3923 73.7334 32.1056C72.6756 31.6832 71.5946 31.3186 70.4955 31.0132C68.7966 30.5303 67.1378 29.9217 65.5333 29.1926C64.2263 28.5613 63.0927 27.6333 62.2271 26.486C61.2504 25.1187 60.764 23.4734 60.8439 21.8071C60.7859 20.5229 61.0434 19.2437 61.5949 18.077C62.1464 16.9102 62.9758 15.8898 64.0136 15.1013C66.1225 13.487 68.8828 12.6738 72.2757 12.6738C75.6687 12.6738 78.4786 13.481 80.6247 15.1013C81.6719 15.906 82.5206 16.931 83.1079 18.1002C83.6953 19.2694 84.0062 20.5529 84.0177 21.8557H75.7617C75.7559 21.4101 75.6534 20.9708 75.4609 20.567C75.2684 20.1631 74.9904 19.8039 74.6452 19.5132C73.9023 18.9283 72.968 18.6265 72.0152 18.6636C71.2049 18.6237 70.4086 18.8813 69.7822 19.3857C69.4693 19.6858 69.2319 20.0528 69.0884 20.4578C68.9449 20.8628 68.8993 21.2948 68.9552 21.7199C69.0111 22.1451 69.1669 22.5517 69.4105 22.908C69.6541 23.2643 69.9788 23.5605 70.3591 23.7734C71.7793 24.5299 73.276 25.14 74.8251 25.5939C76.5194 26.1287 78.1769 26.7692 79.7874 27.5116C81.0754 28.1446 82.1979 29.0581 83.0687 30.1818C84.0364 31.4845 84.524 33.0698 84.4519 34.6787C84.4711 36.3607 83.9999 38.0132 83.0935 39.4426C82.127 40.9182 80.7556 42.098 79.1361 42.8471C77.2275 43.7338 75.1322 44.1683 73.0201 44.1154C70.9 44.1369 68.7964 43.7492 66.8296 42.9745Z" fill="#37485D"/>
<path d="M104.344 43.7634L96.7643 33.5377V43.7634H89.1162V11.4297H96.7643V29.3018L104.313 19.3796H113.735L103.377 31.614L113.828 43.7512L104.344 43.7634Z" fill="#37485D"/>
<path d="M140.072 33.3615H122.816C122.838 34.6657 123.373 35.9112 124.311 36.8389C125.185 37.6432 126.348 38.0791 127.549 38.0526C128.377 38.1047 129.202 37.9046 129.909 37.4797C130.617 37.0548 131.172 36.4261 131.5 35.6798H139.625C139.216 37.2691 138.447 38.7479 137.374 40.0067C136.266 41.31 134.867 42.3479 133.286 43.041C131.55 43.7816 129.671 44.146 127.778 44.1091C125.508 44.1513 123.264 43.627 121.259 42.5859C119.371 41.5803 117.821 40.0631 116.793 38.2165C115.678 36.1639 115.125 33.8644 115.186 31.541C115.131 29.2319 115.677 26.9472 116.774 24.9019C117.786 23.0517 119.33 21.5324 121.215 20.5325C123.238 19.4962 125.496 18.9804 127.778 19.0335C130.016 18.9903 132.229 19.5018 134.21 20.5203C136.064 21.4918 137.592 22.9671 138.608 24.7684C139.695 26.7336 140.238 28.9428 140.184 31.1768C140.191 31.9066 140.154 32.6362 140.072 33.3615ZM132.393 29.2106C132.414 28.6392 132.305 28.0704 132.073 27.5455C131.841 27.0206 131.493 26.5529 131.053 26.1763C130.117 25.4075 128.925 25.0034 127.704 25.0415C126.524 25.006 125.372 25.3946 124.466 26.1338C123.547 26.9251 122.959 28.021 122.816 29.2106H132.393Z" fill="#37485D"/>
<path d="M180 19.3799L173.258 43.7636H164.816L160.883 27.9427L156.82 43.7636H148.428L141.636 19.3799H149.271L152.801 36.8151L157 19.3799H165.064L169.338 36.7301L172.824 19.3799H180Z" fill="#37485D"/>
</svg>
