<svg width="48" height="49" viewBox="0 0 48 49" fill="none" xmlns="http://www.w3.org/2000/svg">
<path d="M0 36.2698V2.66978C0 1.98978 0.2304 1.41938 0.6912 0.958575C1.1504 0.499375 1.72 0.269775 2.4 0.269775H33.6C34.28 0.269775 34.8496 0.499375 35.3088 0.958575C35.7696 1.41938 36 1.98978 36 2.66978V24.2698C36 24.9498 35.7696 25.5194 35.3088 25.9786C34.8496 26.4394 34.28 26.6698 33.6 26.6698H9.6L0 36.2698ZM12 38.6698C11.32 38.6698 10.7496 38.4394 10.2888 37.9786C9.8296 37.5194 9.6 36.9498 9.6 36.2698V31.4698H40.8V9.86978H45.6C46.28 9.86978 46.8496 10.0994 47.3088 10.5586C47.7696 11.0194 48 11.5898 48 12.2698V48.2698L38.4 38.6698H12ZM31.2 5.06978H4.8V24.6898L7.62 21.8698H31.2V5.06978Z" fill="#38B6FF"/>
</svg>
