<svg width="48" height="44" viewBox="0 0 48 44" fill="none" xmlns="http://www.w3.org/2000/svg">
<path d="M23.7383 39.5247C23.8837 39.5247 24.0291 39.4883 24.1745 39.4156C24.3199 39.3429 24.4289 39.2702 24.5016 39.1975L42.3844 21.3148C42.8205 20.8786 43.1389 20.3879 43.3396 19.8427C43.5388 19.2975 43.6383 18.7523 43.6383 18.2071C43.6383 17.6255 43.5388 17.0709 43.3396 16.5431C43.1389 16.0168 42.8205 15.5537 42.3844 15.1539L33.1159 5.8854C32.716 5.44924 32.253 5.13084 31.7267 4.9302C31.1989 4.73102 30.6443 4.63143 30.0627 4.63143C29.5175 4.63143 28.9723 4.73102 28.4271 4.9302C27.8819 5.13084 27.3912 5.44924 26.955 5.8854L26.3553 6.48513L30.3898 10.5742C30.935 11.083 31.3348 11.6646 31.5893 12.3188C31.8437 12.9731 31.9709 13.6637 31.9709 14.3906C31.9709 15.9172 31.4533 17.1981 30.4182 18.2332C29.3816 19.2699 28.1 19.7882 26.5734 19.7882C25.8464 19.7882 25.1471 19.661 24.4754 19.4065C23.8023 19.1521 23.2113 18.7705 22.7024 18.2616L18.6134 14.2271L9.07224 23.7682C8.9632 23.8772 8.88105 23.9957 8.82581 24.1237C8.77201 24.2501 8.74512 24.3861 8.74512 24.5315C8.74512 24.8223 8.85416 25.0854 9.07224 25.3209C9.29032 25.5579 9.54475 25.6764 9.83553 25.6764C9.98092 25.6764 10.1263 25.6401 10.2717 25.5674C10.4171 25.4947 10.5261 25.422 10.5988 25.3493L18.0136 17.9345L21.0668 20.9876L13.7065 28.4024C13.5975 28.5115 13.5153 28.6293 13.4601 28.7557C13.4063 28.8837 13.3794 29.0203 13.3794 29.1657C13.3794 29.4565 13.4884 29.7109 13.7065 29.929C13.9246 30.1471 14.179 30.2561 14.4698 30.2561C14.6152 30.2561 14.7606 30.2198 14.906 30.1471C15.0513 30.0744 15.1604 30.0017 15.2331 29.929L22.6479 22.5687L25.701 25.6219L18.3408 33.0367C18.2317 33.1094 18.1503 33.2184 18.0965 33.3638C18.0413 33.5092 18.0136 33.6546 18.0136 33.8C18.0136 34.0908 18.1227 34.3452 18.3408 34.5633C18.5588 34.7814 18.8133 34.8904 19.104 34.8904C19.2494 34.8904 19.3861 34.8628 19.514 34.8075C19.6405 34.7537 19.7583 34.6723 19.8673 34.5633L27.2821 27.203L30.3353 30.2561L22.9205 37.671C22.8114 37.78 22.73 37.8978 22.6762 38.0243C22.621 38.1522 22.5934 38.2889 22.5934 38.4342C22.5934 38.725 22.7119 38.9795 22.9488 39.1975C23.1844 39.4156 23.4475 39.5247 23.7383 39.5247ZM23.6838 43.8863C22.3389 43.8863 21.1489 43.4407 20.1138 42.5495C19.0771 41.6597 18.468 40.5424 18.2862 39.1975C17.0504 39.0158 16.0145 38.5069 15.1786 37.671C14.3426 36.835 13.8337 35.7991 13.652 34.5633C12.4162 34.3815 11.3897 33.864 10.5726 33.0105C9.75411 32.1556 9.25398 31.1285 9.07224 29.929C7.69105 29.7473 6.56429 29.1476 5.69196 28.1298C4.81963 27.1121 4.38346 25.9127 4.38346 24.5315C4.38346 23.8045 4.52013 23.1045 4.79346 22.4313C5.06533 21.7596 5.4557 21.1694 5.96456 20.6605L18.6134 8.06623L25.7556 15.2084C25.8283 15.3175 25.9373 15.3989 26.0827 15.4527C26.2281 15.5079 26.3735 15.5356 26.5189 15.5356C26.846 15.5356 27.1186 15.436 27.3367 15.2368C27.5547 15.0362 27.6638 14.7723 27.6638 14.4452C27.6638 14.2998 27.6369 14.1544 27.5831 14.009C27.5279 13.8636 27.4457 13.7546 27.3367 13.6819L19.5402 5.8854C19.1404 5.44924 18.6766 5.13084 18.1488 4.9302C17.6225 4.73102 17.0686 4.63143 16.4871 4.63143C15.9418 4.63143 15.3966 4.73102 14.8514 4.9302C14.3062 5.13084 13.8155 5.44924 13.3794 5.8854L5.69196 13.6273C5.36483 13.9545 5.09223 14.3361 4.87415 14.7723C4.65606 15.2084 4.51068 15.6446 4.43798 16.0808C4.36529 16.5169 4.36529 16.9618 4.43798 17.4154C4.51068 17.8705 4.65606 18.2979 4.87415 18.6978L1.71195 21.86C1.09405 21.024 0.639709 20.1059 0.348932 19.1056C0.0581553 18.1068 -0.050886 17.0985 0.0218083 16.0808C0.0945025 15.0631 0.348932 14.0722 0.785098 13.1083C1.22126 12.1458 1.82099 11.283 2.58428 10.5197L10.2717 2.83225C11.144 1.99626 12.1167 1.36019 13.1896 0.924023C14.2612 0.487858 15.3603 0.269775 16.4871 0.269775C17.6138 0.269775 18.7129 0.487858 19.7845 0.924023C20.8574 1.36019 21.8119 1.99626 22.6479 2.83225L23.2476 3.43197L23.8473 2.83225C24.7197 1.99626 25.6916 1.36019 26.7631 0.924023C27.8361 0.487858 28.9359 0.269775 30.0627 0.269775C31.1895 0.269775 32.2893 0.487858 33.3623 0.924023C34.4338 1.36019 35.3876 1.99626 36.2235 2.83225L45.4375 12.0462C46.2735 12.8822 46.9096 13.8454 47.3458 14.9358C47.7819 16.0263 48 17.1348 48 18.2616C48 19.3884 47.7819 20.4875 47.3458 21.559C46.9096 22.632 46.2735 23.5865 45.4375 24.4224L27.5547 42.2507C27.0459 42.7596 26.4549 43.1594 25.7817 43.4501C25.11 43.7409 24.4107 43.8863 23.6838 43.8863Z" fill="#38B6FF"/>
</svg>
