<svg width="12" height="4" viewBox="0 0 12 4" fill="none" xmlns="http://www.w3.org/2000/svg">
<path d="M2.00033 3.6027C1.63366 3.6027 1.31988 3.47203 1.05899 3.2107C0.797659 2.94981 0.666992 2.63604 0.666992 2.26937C0.666992 1.9027 0.797659 1.5887 1.05899 1.32737C1.31988 1.06648 1.63366 0.936035 2.00033 0.936035C2.36699 0.936035 2.68077 1.06648 2.94166 1.32737C3.20299 1.5887 3.33366 1.9027 3.33366 2.26937C3.33366 2.63604 3.20299 2.94981 2.94166 3.2107C2.68077 3.47203 2.36699 3.6027 2.00033 3.6027ZM6.00033 3.6027C5.63366 3.6027 5.31988 3.47203 5.05899 3.2107C4.79766 2.94981 4.66699 2.63604 4.66699 2.26937C4.66699 1.9027 4.79766 1.5887 5.05899 1.32737C5.31988 1.06648 5.63366 0.936035 6.00033 0.936035C6.36699 0.936035 6.68099 1.06648 6.94233 1.32737C7.20321 1.5887 7.33366 1.9027 7.33366 2.26937C7.33366 2.63604 7.20321 2.94981 6.94233 3.2107C6.68099 3.47203 6.36699 3.6027 6.00033 3.6027ZM10.0003 3.6027C9.63366 3.6027 9.31966 3.47203 9.05833 3.2107C8.79744 2.94981 8.66699 2.63604 8.66699 2.26937C8.66699 1.9027 8.79744 1.5887 9.05833 1.32737C9.31966 1.06648 9.63366 0.936035 10.0003 0.936035C10.367 0.936035 10.681 1.06648 10.9423 1.32737C11.2032 1.5887 11.3337 1.9027 11.3337 2.26937C11.3337 2.63604 11.2032 2.94981 10.9423 3.2107C10.681 3.47203 10.367 3.6027 10.0003 3.6027Z" fill="#505B64"/>
</svg>
