<svg width="44" height="45" viewBox="0 0 44 45" fill="none" xmlns="http://www.w3.org/2000/svg">
<rect y="0.269775" width="44" height="44" rx="22" fill="black"/>
<g clip-path="url(#clip0_686_12646)">
<g clip-path="url(#clip1_686_12646)">
<path d="M31.75 18.0446V21.5321C31.5625 21.5321 31.3375 21.5696 31.1125 21.5696C29.425 21.5696 27.85 20.9321 26.65 19.9196V27.3446C26.65 28.8446 26.1625 30.2696 25.3 31.3946C24.1 33.0071 22.15 34.0946 19.9375 34.0946C17.5375 34.0946 15.4375 32.8196 14.275 30.9446C15.475 32.0696 17.0875 32.7821 18.85 32.7821C21.025 32.7821 22.975 31.7321 24.175 30.0821C25 28.9571 25.525 27.5696 25.525 26.0321V18.5696C26.725 19.6196 28.2625 20.2196 29.9875 20.2196C30.2125 20.2196 30.4 20.2196 30.625 20.1821V17.9321C30.9625 18.0071 31.2625 18.0446 31.6 18.0446H31.75Z" fill="#FF004F"/>
<path d="M20.875 20.6322V24.4947C20.6125 24.4197 20.3125 24.3822 20.05 24.3822C18.4 24.3822 17.05 25.7697 17.05 27.4572C17.05 27.8322 17.125 28.1697 17.2375 28.5072C16.4875 27.9447 15.9625 27.0447 15.9625 26.0322C15.9625 24.3447 17.3125 22.9572 18.9625 22.9572C19.2625 22.9572 19.525 22.9947 19.7875 23.0697V20.5947C19.8625 20.5947 19.9375 20.5947 20.0125 20.5947C20.3125 20.5947 20.6125 20.5947 20.875 20.6322Z" fill="#FF004F"/>
<path d="M27.2125 15.2697C26.5375 14.6697 26.05 13.8447 25.7875 12.9822H26.6875C26.6875 13.1697 26.6875 13.3197 26.6875 13.5072C26.7625 14.1072 26.95 14.7072 27.2125 15.2697Z" fill="#FF004F"/>
<path d="M30.6625 17.9697V20.2197C30.475 20.2572 30.25 20.2572 30.025 20.2572C28.3375 20.2572 26.7625 19.6197 25.5625 18.6072V26.0322C25.5625 27.5322 25.075 28.9572 24.2125 30.0822C22.975 31.7322 21.0625 32.7822 18.8875 32.7822C17.125 32.7822 15.5125 32.0697 14.3125 30.9447C13.675 29.8947 13.3 28.6947 13.3 27.3822C13.3 23.7447 16.1875 20.7822 19.7875 20.6697V23.1447C19.525 23.0697 19.225 23.0322 18.9625 23.0322C17.3125 23.0322 15.9625 24.4197 15.9625 26.1072C15.9625 27.1197 16.45 28.0572 17.2375 28.5822C17.65 29.7447 18.775 30.6072 20.05 30.6072C21.7 30.6072 23.05 29.2197 23.05 27.5322V12.9822H25.7875C26.05 13.8822 26.5375 14.6697 27.2125 15.2697C27.8875 16.6197 29.1625 17.6322 30.6625 17.9697Z" fill="black"/>
<path d="M19.7875 19.3199V20.5949C16.1875 20.7074 13.3 23.6699 13.3 27.3074C13.3 28.6199 13.675 29.8199 14.3125 30.8699C13.0375 29.6324 12.25 27.9074 12.25 25.9574C12.25 22.2449 15.25 19.2449 18.925 19.2449C19.225 19.2449 19.525 19.2824 19.7875 19.3199Z" fill="#00F7EF"/>
<path d="M25.7875 12.9823H23.05V27.4573C23.05 29.1448 21.7 30.5323 20.05 30.5323C18.7375 30.5323 17.65 29.7073 17.2375 28.5073C17.725 28.8448 18.325 29.0698 18.9625 29.0698C20.6125 29.0698 21.9625 27.7198 21.9625 26.0323V11.5198H25.6V11.5948C25.6 11.7448 25.6 11.8948 25.6375 12.0448C25.6375 12.3448 25.7125 12.6823 25.7875 12.9823Z" fill="#00F7EF"/>
<path d="M30.6625 16.5823V17.9323C29.1625 17.6323 27.8875 16.6198 27.175 15.2698C28.1125 16.1323 29.3125 16.6198 30.6625 16.5823Z" fill="#00F7EF"/>
</g>
</g>
<defs>
<clipPath id="clip0_686_12646">
<rect width="24" height="24" fill="white" transform="translate(10 10.7698)"/>
</clipPath>
<clipPath id="clip1_686_12646">
<rect width="24" height="24" fill="white" transform="translate(10 10.7698)"/>
</clipPath>
</defs>
</svg>
