<svg width="48" height="54" viewBox="0 0 48 54" fill="none" xmlns="http://www.w3.org/2000/svg">
<path d="M16 38.9364C14.1333 38.9364 12.5556 38.292 11.2667 37.0031C9.97778 35.7142 9.33333 34.1364 9.33333 32.2698C9.33333 30.4031 9.97778 28.8253 11.2667 27.5364C12.5556 26.2476 14.1333 25.6031 16 25.6031C17.8667 25.6031 19.4444 26.2476 20.7333 27.5364C22.0222 28.8253 22.6667 30.4031 22.6667 32.2698C22.6667 34.1364 22.0222 35.7142 20.7333 37.0031C19.4444 38.292 17.8667 38.9364 16 38.9364ZM5.33333 53.6031C3.86667 53.6031 2.61067 53.0813 1.56533 52.0378C0.521778 50.9924 0 49.7364 0 48.2698V10.9364C0 9.46978 0.521778 8.21466 1.56533 7.17111C2.61067 6.12577 3.86667 5.60311 5.33333 5.60311H8V0.269775H13.3333V5.60311H34.6667V0.269775H40V5.60311H42.6667C44.1333 5.60311 45.3893 6.12577 46.4347 7.17111C47.4782 8.21466 48 9.46978 48 10.9364V48.2698C48 49.7364 47.4782 50.9924 46.4347 52.0378C45.3893 53.0813 44.1333 53.6031 42.6667 53.6031H5.33333ZM5.33333 48.2698H42.6667V21.6031H5.33333V48.2698ZM5.33333 16.2698H42.6667V10.9364H5.33333V16.2698Z" fill="#38B6FF"/>
</svg>
