<svg width="44" height="45" viewBox="0 0 44 45" fill="none" xmlns="http://www.w3.org/2000/svg">
<rect y="0.269775" width="44" height="44" rx="22" fill="#FF0000"/>
<path d="M33.4985 16.4101C33.2224 15.3708 32.4092 14.5523 31.3766 14.2745C29.505 13.7698 22 13.7698 22 13.7698C22 13.7698 14.495 13.7698 12.6233 14.2745C11.5907 14.5523 10.7775 15.3708 10.5015 16.4102C10 18.2939 10 22.2243 10 22.2243C10 22.2243 10 26.1548 10.5015 28.0385C10.7775 29.0778 11.5907 29.8623 12.6233 30.1401C14.495 30.6448 22 30.6448 22 30.6448C22 30.6448 29.505 30.6448 31.3766 30.1401C32.4092 29.8622 33.2224 29.0778 33.4985 28.0385C34 26.1548 34 22.2243 34 22.2243C34 22.2243 34 18.2939 33.4985 16.4101Z" fill="white"/>
<path d="M19.5452 25.7928V18.6558L25.8178 22.2244L19.5452 25.7928Z" fill="#FF0000"/>
</svg>
